<svg width="620" height="640" viewBox="0 0 620 640" xmlns="http://www.w3.org/2000/svg">
  <rect width="620" height="640" fill="#0B0D12"/>
  <circle cx="300" cy="300" r="260" fill="#12151C" stroke="#2A2E38" stroke-width="1"/>
  <circle cx="300" cy="300" r="171.6" fill="none" stroke="#1D212B" stroke-width="0.5"/>
  <circle cx="300" cy="300" r="85.8" fill="none" stroke="#1D212B" stroke-width="0.5"/>
  <text x="300" y="26" font-size="14" fill="#8A8F98" text-anchor="middle" font-family="sans-serif">N</text>
  <text x="576" y="304" font-size="14" fill="#8A8F98" text-anchor="middle" font-family="sans-serif">E</text>
  <text x="300" y="582" font-size="14" fill="#8A8F98" text-anchor="middle" font-family="sans-serif">S</text>
  <text x="24" y="304" font-size="14" fill="#8A8F98" text-anchor="middle" font-family="sans-serif">W</text>
  
  <circle cx="441.9" cy="334.5" r="12" fill="#F2B33D" opacity="1"/>
  <line x1="441.9" y1="320.5" x2="441.9" y2="315.2" stroke="#F2B33D" stroke-width="0.5" opacity="0.50"/>
  <text x="441.9" y="312.2" font-size="12" fill="#F2B33D" opacity="1" text-anchor="middle" font-family="sans-serif">Sun</text>
  
  
  <g opacity="1">
    <circle cx="274.8" cy="336.3" r="16" fill="#2B2E33"/>
    <path d="M274.7581677724458,320.2676385289535 A16,16 0 0,0 274.7581677724458,352.2676385289535 A8.6282794062543,16 0 0,1 274.7581677724458,320.2676385289535 Z" fill="#E8E6DE"/>
    <circle cx="274.8" cy="336.3" r="16" fill="none" stroke="#4A4D52" stroke-width="0.75"/>
  </g>
  
  <text x="274.8" y="312.3" font-size="12" fill="#C9CDD3" opacity="1" text-anchor="middle" font-family="sans-serif">Moon</text>
  
  <circle cx="390.4" cy="344.0" r="5" fill="#7F9FD0" opacity="1"/>
  <line x1="390.4" y1="337.0" x2="390.4" y2="342.2" stroke="#9FB4DE" stroke-width="0.5" opacity="0.50"/>
  <text x="390.4" y="339.2" font-size="11" fill="#9FB4DE" opacity="1" text-anchor="middle" font-family="sans-serif">Mercury</text>
  
  <circle cx="559.9" cy="292.3" r="5" fill="#7F9FD0" opacity="0.25"/>
  
  <text x="559.9" y="282.3" font-size="11" fill="#9FB4DE" opacity="0.25" text-anchor="middle" font-family="sans-serif">Venus</text>
  
  <circle cx="302.2" cy="349.4" r="5" fill="#7F9FD0" opacity="1"/>
  
  <text x="302.2" y="339.4" font-size="11" fill="#9FB4DE" opacity="1" text-anchor="middle" font-family="sans-serif">Mars</text>
  
  <circle cx="420.3" cy="337.1" r="5" fill="#7F9FD0" opacity="1"/>
  
  <text x="420.3" y="326.1" font-size="11" fill="#9FB4DE" opacity="1" text-anchor="middle" font-family="sans-serif">Jupiter</text>
  
  <circle cx="86.9" cy="333.2" r="5" fill="#7F9FD0" opacity="1"/>
  
  <text x="86.9" y="323.2" font-size="11" fill="#9FB4DE" opacity="1" text-anchor="middle" font-family="sans-serif">Saturn</text>
  
  <circle cx="235.0" cy="349.1" r="5" fill="#7F9FD0" opacity="1"/>
  
  <text x="235.0" y="339.1" font-size="11" fill="#9FB4DE" opacity="1" text-anchor="middle" font-family="sans-serif">Uranus</text>
  
  <circle cx="57.6" cy="318.8" r="5" fill="#7F9FD0" opacity="1"/>
  
  <text x="57.6" y="308.8" font-size="11" fill="#9FB4DE" opacity="1" text-anchor="middle" font-family="sans-serif">Neptune</text>
  <text x="300" y="600" font-size="13" fill="#6C7280" text-anchor="middle" font-family="sans-serif">New York, USA — 2026-08-08 13:36 UTC</text>
  <text x="300" y="620" font-size="11" fill="#4A4E58" text-anchor="middle" font-family="sans-serif">zenith at center · horizon at edge · dim = below horizon</text>
</svg>
