<svg width="620" height="640" viewBox="0 0 620 640" xmlns="http://www.w3.org/2000/svg">
  <rect width="620" height="640" fill="#0B0D12"/>
  <circle cx="300" cy="300" r="260" fill="#12151C" stroke="#2A2E38" stroke-width="1"/>
  <circle cx="300" cy="300" r="171.6" fill="none" stroke="#1D212B" stroke-width="0.5"/>
  <circle cx="300" cy="300" r="85.8" fill="none" stroke="#1D212B" stroke-width="0.5"/>
  <text x="300" y="26" font-size="14" fill="#8A8F98" text-anchor="middle" font-family="sans-serif">N</text>
  <text x="576" y="304" font-size="14" fill="#8A8F98" text-anchor="middle" font-family="sans-serif">E</text>
  <text x="300" y="582" font-size="14" fill="#8A8F98" text-anchor="middle" font-family="sans-serif">S</text>
  <text x="24" y="304" font-size="14" fill="#8A8F98" text-anchor="middle" font-family="sans-serif">W</text>
  
  <circle cx="381.3" cy="160.2" r="12" fill="#F2B33D" opacity="1"/>
  <line x1="381.3" y1="146.2" x2="381.3" y2="138.5" stroke="#F2B33D" stroke-width="0.5" opacity="0.50"/>
  <text x="381.3" y="135.5" font-size="12" fill="#F2B33D" opacity="1" text-anchor="middle" font-family="sans-serif">Sun</text>
  
  
  <g opacity="0.25">
    <circle cx="60.0" cy="200.0" r="16" fill="#2B2E33"/>
    <path d="M59.9893435222649,184.02557938589177 A16,16 0 0,0 59.9893435222649,216.02557938589177 A1.7251787626512822,16 0 0,0 59.9893435222649,184.02557938589177 Z" fill="#E8E6DE"/>
    <circle cx="60.0" cy="200.0" r="16" fill="none" stroke="#4A4D52" stroke-width="0.75"/>
  </g>
  
  <text x="60.0" y="176.0" font-size="12" fill="#C9CDD3" opacity="0.25" text-anchor="middle" font-family="sans-serif">Moon</text>
  
  <circle cx="319.3" cy="145.0" r="5" fill="#7F9FD0" opacity="1"/>
  
  <text x="319.3" y="135.0" font-size="11" fill="#9FB4DE" opacity="1" text-anchor="middle" font-family="sans-serif">Mercury</text>
  
  <circle cx="504.8" cy="256.1" r="5" fill="#7F9FD0" opacity="1"/>
  
  <text x="504.8" y="246.1" font-size="11" fill="#9FB4DE" opacity="1" text-anchor="middle" font-family="sans-serif">Venus</text>
  
  <circle cx="224.6" cy="139.5" r="5" fill="#7F9FD0" opacity="1"/>
  
  <text x="224.6" y="129.5" font-size="11" fill="#9FB4DE" opacity="1" text-anchor="middle" font-family="sans-serif">Mars</text>
  
  <circle cx="365.1" cy="152.6" r="5" fill="#7F9FD0" opacity="1"/>
  <line x1="365.1" y1="145.6" x2="365.1" y2="152.3" stroke="#9FB4DE" stroke-width="0.5" opacity="0.50"/>
  <text x="365.1" y="149.3" font-size="11" fill="#9FB4DE" opacity="1" text-anchor="middle" font-family="sans-serif">Jupiter</text>
  
  <circle cx="40.0" cy="300.4" r="5" fill="#7F9FD0" opacity="0.25"/>
  
  <text x="40.0" y="290.4" font-size="11" fill="#9FB4DE" opacity="0.25" text-anchor="middle" font-family="sans-serif">Saturn</text>
  
  <circle cx="153.8" cy="159.4" r="5" fill="#7F9FD0" opacity="1"/>
  
  <text x="153.8" y="149.4" font-size="11" fill="#9FB4DE" opacity="1" text-anchor="middle" font-family="sans-serif">Uranus</text>
  
  <circle cx="42.7" cy="337.7" r="5" fill="#7F9FD0" opacity="0.25"/>
  
  <text x="42.7" y="327.7" font-size="11" fill="#9FB4DE" opacity="0.25" text-anchor="middle" font-family="sans-serif">Neptune</text>
  <text x="300" y="600" font-size="13" fill="#6C7280" text-anchor="middle" font-family="sans-serif">Santiago, Chile — 2026-08-05 15:05 UTC</text>
  <text x="300" y="620" font-size="11" fill="#4A4E58" text-anchor="middle" font-family="sans-serif">zenith at center · horizon at edge · dim = below horizon</text>
</svg>
