<svg width="620" height="640" viewBox="0 0 620 640" xmlns="http://www.w3.org/2000/svg">
  <rect width="620" height="640" fill="#0B0D12"/>
  <circle cx="300" cy="300" r="260" fill="#12151C" stroke="#2A2E38" stroke-width="1"/>
  <circle cx="300" cy="300" r="171.6" fill="none" stroke="#1D212B" stroke-width="0.5"/>
  <circle cx="300" cy="300" r="85.8" fill="none" stroke="#1D212B" stroke-width="0.5"/>
  <text x="300" y="26" font-size="14" fill="#8A8F98" text-anchor="middle" font-family="sans-serif">N</text>
  <text x="576" y="304" font-size="14" fill="#8A8F98" text-anchor="middle" font-family="sans-serif">E</text>
  <text x="300" y="582" font-size="14" fill="#8A8F98" text-anchor="middle" font-family="sans-serif">S</text>
  <text x="24" y="304" font-size="14" fill="#8A8F98" text-anchor="middle" font-family="sans-serif">W</text>
  
  <circle cx="159.8" cy="81.0" r="12" fill="#F2B33D" opacity="0.2"/>
  <line x1="159.8" y1="67.0" x2="159.8" y2="59.1" stroke="#F2B33D" stroke-width="0.5" opacity="0.10"/>
  <text x="159.8" y="56.1" font-size="12" fill="#F2B33D" opacity="0.2" text-anchor="middle" font-family="sans-serif">Sun</text>
  
  
  <g opacity="1">
    <circle cx="515.9" cy="339.7" r="16" fill="#2B2E33"/>
    <path d="M515.8850819815028,323.6727832631519 A16,16 0 0,0 515.8850819815028,355.6727832631519 A11.221208827560694,16 0 0,0 515.8850819815028,323.6727832631519 Z" fill="#E8E6DE"/>
    <circle cx="515.9" cy="339.7" r="16" fill="none" stroke="#4A4D52" stroke-width="0.75"/>
  </g>
  <line x1="515.9" y1="321.7" x2="515.9" y2="323.2" stroke="#C9CDD3" stroke-width="0.5" opacity="0.50"/>
  <text x="515.9" y="320.2" font-size="12" fill="#C9CDD3" opacity="1" text-anchor="middle" font-family="sans-serif">Moon</text>
  
  <circle cx="254.3" cy="44.1" r="5" fill="#7F9FD0" opacity="0.25"/>
  
  <text x="254.3" y="34.1" font-size="11" fill="#9FB4DE" opacity="0.25" text-anchor="middle" font-family="sans-serif">Mercury</text>
  
  <circle cx="45.3" cy="247.6" r="5" fill="#7F9FD0" opacity="0.25"/>
  
  <text x="45.3" y="237.6" font-size="11" fill="#9FB4DE" opacity="0.25" text-anchor="middle" font-family="sans-serif">Venus</text>
  
  <circle cx="391.2" cy="56.5" r="5" fill="#7F9FD0" opacity="0.25"/>
  
  <text x="391.2" y="46.5" font-size="11" fill="#9FB4DE" opacity="0.25" text-anchor="middle" font-family="sans-serif">Mars</text>
  
  <circle cx="173.3" cy="73.0" r="5" fill="#7F9FD0" opacity="0.25"/>
  <line x1="173.3" y1="66.0" x2="173.3" y2="72.9" stroke="#9FB4DE" stroke-width="0.5" opacity="0.13"/>
  <text x="173.3" y="69.9" font-size="11" fill="#9FB4DE" opacity="0.25" text-anchor="middle" font-family="sans-serif">Jupiter</text>
  
  <circle cx="555.5" cy="284.3" r="5" fill="#7F9FD0" opacity="1"/>
  
  <text x="555.5" y="274.3" font-size="11" fill="#9FB4DE" opacity="1" text-anchor="middle" font-family="sans-serif">Saturn</text>
  
  <circle cx="468.5" cy="102.0" r="5" fill="#7F9FD0" opacity="0.25"/>
  
  <text x="468.5" y="92.0" font-size="11" fill="#9FB4DE" opacity="0.25" text-anchor="middle" font-family="sans-serif">Uranus</text>
  
  <circle cx="537.4" cy="320.2" r="5" fill="#7F9FD0" opacity="1"/>
  <line x1="537.4" y1="313.2" x2="537.4" y2="308.6" stroke="#9FB4DE" stroke-width="0.5" opacity="0.50"/>
  <text x="537.4" y="305.6" font-size="11" fill="#9FB4DE" opacity="1" text-anchor="middle" font-family="sans-serif">Neptune</text>
  <text x="300" y="600" font-size="13" fill="#6C7280" text-anchor="middle" font-family="sans-serif">Tokyo, Japan — 2026-08-02 12:50 UTC</text>
  <text x="300" y="620" font-size="11" fill="#4A4E58" text-anchor="middle" font-family="sans-serif">zenith at center · horizon at edge · dim = below horizon</text>
</svg>
