<svg width="620" height="640" viewBox="0 0 620 640" xmlns="http://www.w3.org/2000/svg">
  <rect width="620" height="640" fill="#0B0D12"/>
  <circle cx="300" cy="300" r="260" fill="#12151C" stroke="#2A2E38" stroke-width="1"/>
  <circle cx="300" cy="300" r="171.6" fill="none" stroke="#1D212B" stroke-width="0.5"/>
  <circle cx="300" cy="300" r="85.8" fill="none" stroke="#1D212B" stroke-width="0.5"/>
  <text x="300" y="26" font-size="14" fill="#8A8F98" text-anchor="middle" font-family="sans-serif">N</text>
  <text x="576" y="304" font-size="14" fill="#8A8F98" text-anchor="middle" font-family="sans-serif">E</text>
  <text x="300" y="582" font-size="14" fill="#8A8F98" text-anchor="middle" font-family="sans-serif">S</text>
  <text x="24" y="304" font-size="14" fill="#8A8F98" text-anchor="middle" font-family="sans-serif">W</text>
  
  <circle cx="62.8" cy="201.2" r="12" fill="#F2B33D" opacity="1"/>
  <line x1="62.8" y1="187.2" x2="62.8" y2="182.6" stroke="#F2B33D" stroke-width="0.5" opacity="0.50"/>
  <text x="62.8" y="179.6" font-size="12" fill="#F2B33D" opacity="1" text-anchor="middle" font-family="sans-serif">Sun</text>
  
  
  <g opacity="0.25">
    <circle cx="528.2" cy="424.7" r="16" fill="#2B2E33"/>
    <path d="M528.1644793375252,408.6634283526489 A16,16 0 0,0 528.1644793375252,440.6634283526489 A15.470128452289455,16 0 0,0 528.1644793375252,408.6634283526489 Z" fill="#E8E6DE"/>
    <circle cx="528.2" cy="424.7" r="16" fill="none" stroke="#4A4D52" stroke-width="0.75"/>
  </g>
  
  <text x="528.2" y="400.7" font-size="12" fill="#C9CDD3" opacity="0.25" text-anchor="middle" font-family="sans-serif">Moon</text>
  
  <circle cx="46.9" cy="240.4" r="5" fill="#7F9FD0" opacity="0.25"/>
  
  <text x="46.9" y="230.4" font-size="11" fill="#9FB4DE" opacity="0.25" text-anchor="middle" font-family="sans-serif">Mercury</text>
  
  <circle cx="198.2" cy="206.3" r="5" fill="#7F9FD0" opacity="1"/>
  
  <text x="198.2" y="196.3" font-size="11" fill="#9FB4DE" opacity="1" text-anchor="middle" font-family="sans-serif">Venus</text>
  
  <circle cx="40.4" cy="286.4" r="5" fill="#7F9FD0" opacity="0.25"/>
  
  <text x="40.4" y="276.4" font-size="11" fill="#9FB4DE" opacity="0.25" text-anchor="middle" font-family="sans-serif">Mars</text>
  
  <circle cx="60.3" cy="199.8" r="5" fill="#7F9FD0" opacity="1"/>
  <line x1="60.3" y1="192.8" x2="60.3" y2="196.4" stroke="#9FB4DE" stroke-width="0.5" opacity="0.50"/>
  <text x="60.3" y="193.4" font-size="11" fill="#9FB4DE" opacity="1" text-anchor="middle" font-family="sans-serif">Jupiter</text>
  
  <circle cx="402.9" cy="538.8" r="5" fill="#7F9FD0" opacity="0.25"/>
  
  <text x="402.9" y="528.8" font-size="11" fill="#9FB4DE" opacity="0.25" text-anchor="middle" font-family="sans-serif">Saturn</text>
  
  <circle cx="45.5" cy="353.2" r="5" fill="#7F9FD0" opacity="0.25"/>
  
  <text x="45.5" y="343.2" font-size="11" fill="#9FB4DE" opacity="0.25" text-anchor="middle" font-family="sans-serif">Uranus</text>
  
  <circle cx="456.0" cy="508.0" r="5" fill="#7F9FD0" opacity="0.25"/>
  
  <text x="456.0" y="498.0" font-size="11" fill="#9FB4DE" opacity="0.25" text-anchor="middle" font-family="sans-serif">Neptune</text>
  <text x="300" y="600" font-size="13" fill="#6C7280" text-anchor="middle" font-family="sans-serif">Santiago, Chile — 2026-07-30 21:55 UTC</text>
  <text x="300" y="620" font-size="11" fill="#4A4E58" text-anchor="middle" font-family="sans-serif">zenith at center · horizon at edge · dim = below horizon</text>
</svg>
