<svg width="620" height="640" viewBox="0 0 620 640" xmlns="http://www.w3.org/2000/svg">
  <rect width="620" height="640" fill="#0B0D12"/>
  <circle cx="300" cy="300" r="260" fill="#12151C" stroke="#2A2E38" stroke-width="1"/>
  <circle cx="300" cy="300" r="171.6" fill="none" stroke="#1D212B" stroke-width="0.5"/>
  <circle cx="300" cy="300" r="85.8" fill="none" stroke="#1D212B" stroke-width="0.5"/>
  <text x="300" y="26" font-size="14" fill="#8A8F98" text-anchor="middle" font-family="sans-serif">N</text>
  <text x="576" y="304" font-size="14" fill="#8A8F98" text-anchor="middle" font-family="sans-serif">E</text>
  <text x="300" y="582" font-size="14" fill="#8A8F98" text-anchor="middle" font-family="sans-serif">S</text>
  <text x="24" y="304" font-size="14" fill="#8A8F98" text-anchor="middle" font-family="sans-serif">W</text>
  
  <circle cx="261.2" cy="157.7" r="12" fill="#F2B33D" opacity="1"/>
  <line x1="261.2" y1="143.7" x2="261.2" y2="137.2" stroke="#F2B33D" stroke-width="0.5" opacity="0.50"/>
  <text x="261.2" y="134.2" font-size="12" fill="#F2B33D" opacity="1" text-anchor="middle" font-family="sans-serif">Sun</text>
  
  
  <g opacity="0.25">
    <circle cx="63.6" cy="191.8" r="16" fill="#2B2E33"/>
    <path d="M63.58978516989151,175.78627478927655 A16,16 0 0,0 63.58978516989151,207.78627478927655 A5.839158647772672,16 0 0,1 63.58978516989151,175.78627478927655 Z" fill="#E8E6DE"/>
    <circle cx="63.6" cy="191.8" r="16" fill="none" stroke="#4A4D52" stroke-width="0.75"/>
  </g>
  
  <text x="63.6" y="167.8" font-size="12" fill="#C9CDD3" opacity="0.25" text-anchor="middle" font-family="sans-serif">Moon</text>
  
  <circle cx="202.5" cy="152.1" r="5" fill="#7F9FD0" opacity="1"/>
  <line x1="202.5" y1="145.1" x2="202.5" y2="141.2" stroke="#9FB4DE" stroke-width="0.5" opacity="0.50"/>
  <text x="202.5" y="138.2" font-size="11" fill="#9FB4DE" opacity="1" text-anchor="middle" font-family="sans-serif">Mercury</text>
  
  <circle cx="392.8" cy="216.0" r="5" fill="#7F9FD0" opacity="1"/>
  
  <text x="392.8" y="206.0" font-size="11" fill="#9FB4DE" opacity="1" text-anchor="middle" font-family="sans-serif">Venus</text>
  
  <circle cx="104.6" cy="164.1" r="5" fill="#7F9FD0" opacity="1"/>
  
  <text x="104.6" y="154.1" font-size="11" fill="#9FB4DE" opacity="1" text-anchor="middle" font-family="sans-serif">Mars</text>
  
  <circle cx="240.1" cy="152.5" r="5" fill="#7F9FD0" opacity="1"/>
  <line x1="240.1" y1="145.5" x2="240.1" y2="154.9" stroke="#9FB4DE" stroke-width="0.5" opacity="0.50"/>
  <text x="240.1" y="151.9" font-size="11" fill="#9FB4DE" opacity="1" text-anchor="middle" font-family="sans-serif">Jupiter</text>
  
  <circle cx="66.6" cy="414.6" r="5" fill="#7F9FD0" opacity="0.25"/>
  
  <text x="66.6" y="404.6" font-size="11" fill="#9FB4DE" opacity="0.25" text-anchor="middle" font-family="sans-serif">Saturn</text>
  
  <circle cx="54.8" cy="213.5" r="5" fill="#7F9FD0" opacity="0.25"/>
  
  <text x="54.8" y="203.5" font-size="11" fill="#9FB4DE" opacity="0.25" text-anchor="middle" font-family="sans-serif">Uranus</text>
  
  <circle cx="96.6" cy="462.0" r="5" fill="#7F9FD0" opacity="0.25"/>
  
  <text x="96.6" y="452.0" font-size="11" fill="#9FB4DE" opacity="0.25" text-anchor="middle" font-family="sans-serif">Neptune</text>
  <text x="300" y="600" font-size="13" fill="#6C7280" text-anchor="middle" font-family="sans-serif">Santiago, Chile — 2026-08-07 17:37 UTC</text>
  <text x="300" y="620" font-size="11" fill="#4A4E58" text-anchor="middle" font-family="sans-serif">zenith at center · horizon at edge · dim = below horizon</text>
</svg>
