<svg width="620" height="640" viewBox="0 0 620 640" xmlns="http://www.w3.org/2000/svg">
  <rect width="620" height="640" fill="#0B0D12"/>
  <circle cx="300" cy="300" r="260" fill="#12151C" stroke="#2A2E38" stroke-width="1"/>
  <circle cx="300" cy="300" r="171.6" fill="none" stroke="#1D212B" stroke-width="0.5"/>
  <circle cx="300" cy="300" r="85.8" fill="none" stroke="#1D212B" stroke-width="0.5"/>
  <text x="300" y="26" font-size="14" fill="#8A8F98" text-anchor="middle" font-family="sans-serif">N</text>
  <text x="576" y="304" font-size="14" fill="#8A8F98" text-anchor="middle" font-family="sans-serif">E</text>
  <text x="300" y="582" font-size="14" fill="#8A8F98" text-anchor="middle" font-family="sans-serif">S</text>
  <text x="24" y="304" font-size="14" fill="#8A8F98" text-anchor="middle" font-family="sans-serif">W</text>
  
  <circle cx="556.8" cy="340.4" r="12" fill="#F2B33D" opacity="0.2"/>
  
  <text x="556.8" y="322.4" font-size="12" fill="#F2B33D" opacity="0.2" text-anchor="middle" font-family="sans-serif">Sun</text>
  
  
  <g opacity="1">
    <circle cx="463.4" cy="146.1" r="16" fill="#2B2E33"/>
    <path d="M463.4094679320904,130.1332725303575 A16,16 0 0,0 463.4094679320904,162.1332725303575 A4.4328792360837195,16 0 0,1 463.4094679320904,130.1332725303575 Z" fill="#E8E6DE"/>
    <circle cx="463.4" cy="146.1" r="16" fill="none" stroke="#4A4D52" stroke-width="0.75"/>
  </g>
  
  <text x="463.4" y="122.1" font-size="12" fill="#C9CDD3" opacity="1" text-anchor="middle" font-family="sans-serif">Moon</text>
  
  <circle cx="558.5" cy="272.3" r="5" fill="#7F9FD0" opacity="0.25"/>
  
  <text x="558.5" y="262.3" font-size="11" fill="#9FB4DE" opacity="0.25" text-anchor="middle" font-family="sans-serif">Mercury</text>
  
  <circle cx="346.2" cy="555.9" r="5" fill="#7F9FD0" opacity="0.25"/>
  
  <text x="346.2" y="545.9" font-size="11" fill="#9FB4DE" opacity="0.25" text-anchor="middle" font-family="sans-serif">Venus</text>
  
  <circle cx="536.6" cy="192.1" r="5" fill="#7F9FD0" opacity="0.25"/>
  
  <text x="536.6" y="182.1" font-size="11" fill="#9FB4DE" opacity="0.25" text-anchor="middle" font-family="sans-serif">Mars</text>
  
  <circle cx="559.8" cy="310.6" r="5" fill="#7F9FD0" opacity="0.25"/>
  
  <text x="559.8" y="300.6" font-size="11" fill="#9FB4DE" opacity="0.25" text-anchor="middle" font-family="sans-serif">Jupiter</text>
  
  <circle cx="326.0" cy="194.3" r="5" fill="#7F9FD0" opacity="1"/>
  
  <text x="326.0" y="181.5" font-size="11" fill="#9FB4DE" opacity="1" text-anchor="middle" font-family="sans-serif">Saturn</text>
  
  <circle cx="479.2" cy="168.2" r="5" fill="#7F9FD0" opacity="1"/>
  
  <text x="479.2" y="158.2" font-size="11" fill="#9FB4DE" opacity="1" text-anchor="middle" font-family="sans-serif">Uranus</text>
  
  <circle cx="294.9" cy="202.3" r="5" fill="#7F9FD0" opacity="1"/>
  
  <text x="294.9" y="195.1" font-size="11" fill="#9FB4DE" opacity="1" text-anchor="middle" font-family="sans-serif">Neptune</text>
  <text x="300" y="600" font-size="13" fill="#6C7280" text-anchor="middle" font-family="sans-serif">Santiago, Chile — 2026-08-07 08:03 UTC</text>
  <text x="300" y="620" font-size="11" fill="#4A4E58" text-anchor="middle" font-family="sans-serif">zenith at center · horizon at edge · dim = below horizon</text>
</svg>
