<svg width="620" height="640" viewBox="0 0 620 640" xmlns="http://www.w3.org/2000/svg">
  <rect width="620" height="640" fill="#0B0D12"/>
  <circle cx="300" cy="300" r="260" fill="#12151C" stroke="#2A2E38" stroke-width="1"/>
  <circle cx="300" cy="300" r="171.6" fill="none" stroke="#1D212B" stroke-width="0.5"/>
  <circle cx="300" cy="300" r="85.8" fill="none" stroke="#1D212B" stroke-width="0.5"/>
  <text x="300" y="26" font-size="14" fill="#8A8F98" text-anchor="middle" font-family="sans-serif">N</text>
  <text x="576" y="304" font-size="14" fill="#8A8F98" text-anchor="middle" font-family="sans-serif">E</text>
  <text x="300" y="582" font-size="14" fill="#8A8F98" text-anchor="middle" font-family="sans-serif">S</text>
  <text x="24" y="304" font-size="14" fill="#8A8F98" text-anchor="middle" font-family="sans-serif">W</text>
  
  <circle cx="79.6" cy="162.0" r="12" fill="#F2B33D" opacity="0.2"/>
  
  <text x="79.6" y="142.5" font-size="12" fill="#F2B33D" opacity="0.2" text-anchor="middle" font-family="sans-serif">Sun</text>
  
  
  <g opacity="1">
    <circle cx="394.9" cy="432.1" r="16" fill="#2B2E33"/>
    <path d="M394.9065177728942,416.06311521138275 A16,16 0 0,1 394.9065177728942,448.06311521138275 A14.828941285673466,16 0 0,1 394.9065177728942,416.06311521138275 Z" fill="#E8E6DE"/>
    <circle cx="394.9" cy="432.1" r="16" fill="none" stroke="#4A4D52" stroke-width="0.75"/>
  </g>
  
  <text x="394.9" y="408.1" font-size="12" fill="#C9CDD3" opacity="1" text-anchor="middle" font-family="sans-serif">Moon</text>
  
  <circle cx="116.3" cy="116.0" r="5" fill="#7F9FD0" opacity="0.25"/>
  
  <text x="116.3" y="106.0" font-size="11" fill="#9FB4DE" opacity="0.25" text-anchor="middle" font-family="sans-serif">Mercury</text>
  
  <circle cx="68.3" cy="294.3" r="5" fill="#7F9FD0" opacity="1"/>
  
  <text x="68.3" y="284.3" font-size="11" fill="#9FB4DE" opacity="1" text-anchor="middle" font-family="sans-serif">Venus</text>
  
  <circle cx="254.3" cy="44.0" r="5" fill="#7F9FD0" opacity="0.25"/>
  
  <text x="254.3" y="34.0" font-size="11" fill="#9FB4DE" opacity="0.25" text-anchor="middle" font-family="sans-serif">Mars</text>
  
  <circle cx="77.9" cy="164.8" r="5" fill="#7F9FD0" opacity="0.25"/>
  
  <text x="77.9" y="156.3" font-size="11" fill="#9FB4DE" opacity="0.25" text-anchor="middle" font-family="sans-serif">Jupiter</text>
  
  <circle cx="550.4" cy="230.1" r="5" fill="#7F9FD0" opacity="0.25"/>
  
  <text x="550.4" y="220.1" font-size="11" fill="#9FB4DE" opacity="0.25" text-anchor="middle" font-family="sans-serif">Saturn</text>
  
  <circle cx="356.9" cy="46.3" r="5" fill="#7F9FD0" opacity="0.25"/>
  
  <text x="356.9" y="36.3" font-size="11" fill="#9FB4DE" opacity="0.25" text-anchor="middle" font-family="sans-serif">Uranus</text>
  
  <circle cx="557.3" cy="262.7" r="5" fill="#7F9FD0" opacity="0.25"/>
  
  <text x="557.3" y="252.7" font-size="11" fill="#9FB4DE" opacity="0.25" text-anchor="middle" font-family="sans-serif">Neptune</text>
  <text x="300" y="600" font-size="13" fill="#6C7280" text-anchor="middle" font-family="sans-serif">Mumbai, India — 2026-07-27 15:34 UTC</text>
  <text x="300" y="620" font-size="11" fill="#4A4E58" text-anchor="middle" font-family="sans-serif">zenith at center · horizon at edge · dim = below horizon</text>
</svg>
