<svg width="620" height="640" viewBox="0 0 620 640" xmlns="http://www.w3.org/2000/svg">
  <rect width="620" height="640" fill="#0B0D12"/>
  <circle cx="300" cy="300" r="260" fill="#12151C" stroke="#2A2E38" stroke-width="1"/>
  <circle cx="300" cy="300" r="171.6" fill="none" stroke="#1D212B" stroke-width="0.5"/>
  <circle cx="300" cy="300" r="85.8" fill="none" stroke="#1D212B" stroke-width="0.5"/>
  <text x="300" y="26" font-size="14" fill="#8A8F98" text-anchor="middle" font-family="sans-serif">N</text>
  <text x="576" y="304" font-size="14" fill="#8A8F98" text-anchor="middle" font-family="sans-serif">E</text>
  <text x="300" y="582" font-size="14" fill="#8A8F98" text-anchor="middle" font-family="sans-serif">S</text>
  <text x="24" y="304" font-size="14" fill="#8A8F98" text-anchor="middle" font-family="sans-serif">W</text>
  
  <circle cx="42.2" cy="266.2" r="12" fill="#F2B33D" opacity="0.2"/>
  
  <text x="42.2" y="246.1" font-size="12" fill="#F2B33D" opacity="0.2" text-anchor="middle" font-family="sans-serif">Sun</text>
  
  
  <g opacity="0.25">
    <circle cx="549.0" cy="374.9" r="16" fill="#2B2E33"/>
    <path d="M548.9742931723431,358.91195725204454 A16,16 0 0,0 548.9742931723431,390.91195725204454 A10.713429750528956,16 0 0,0 548.9742931723431,358.91195725204454 Z" fill="#E8E6DE"/>
    <circle cx="549.0" cy="374.9" r="16" fill="none" stroke="#4A4D52" stroke-width="0.75"/>
  </g>
  
  <text x="549.0" y="350.9" font-size="12" fill="#C9CDD3" opacity="0.25" text-anchor="middle" font-family="sans-serif">Moon</text>
  
  <circle cx="40.0" cy="304.0" r="5" fill="#7F9FD0" opacity="0.25"/>
  
  <text x="40.0" y="294.0" font-size="11" fill="#9FB4DE" opacity="0.25" text-anchor="middle" font-family="sans-serif">Mercury</text>
  
  <circle cx="116.3" cy="238.4" r="5" fill="#7F9FD0" opacity="1"/>
  
  <text x="116.3" y="228.4" font-size="11" fill="#9FB4DE" opacity="1" text-anchor="middle" font-family="sans-serif">Venus</text>
  
  <circle cx="51.6" cy="376.9" r="5" fill="#7F9FD0" opacity="0.25"/>
  
  <text x="51.6" y="366.9" font-size="11" fill="#9FB4DE" opacity="0.25" text-anchor="middle" font-family="sans-serif">Mars</text>
  
  <circle cx="42.0" cy="267.8" r="5" fill="#7F9FD0" opacity="0.25"/>
  
  <text x="42.0" y="259.9" font-size="11" fill="#9FB4DE" opacity="0.25" text-anchor="middle" font-family="sans-serif">Jupiter</text>
  
  <circle cx="529.3" cy="422.6" r="5" fill="#7F9FD0" opacity="0.25"/>
  
  <text x="529.3" y="412.6" font-size="11" fill="#9FB4DE" opacity="0.25" text-anchor="middle" font-family="sans-serif">Saturn</text>
  
  <circle cx="193.1" cy="537.0" r="5" fill="#7F9FD0" opacity="0.25"/>
  
  <text x="193.1" y="527.0" font-size="11" fill="#9FB4DE" opacity="0.25" text-anchor="middle" font-family="sans-serif">Uranus</text>
  
  <circle cx="539.8" cy="400.6" r="5" fill="#7F9FD0" opacity="0.25"/>
  
  <text x="539.8" y="390.6" font-size="11" fill="#9FB4DE" opacity="0.25" text-anchor="middle" font-family="sans-serif">Neptune</text>
  <text x="300" y="600" font-size="13" fill="#6C7280" text-anchor="middle" font-family="sans-serif">Cape Town, South Africa — 2026-08-02 17:49 UTC</text>
  <text x="300" y="620" font-size="11" fill="#4A4E58" text-anchor="middle" font-family="sans-serif">zenith at center · horizon at edge · dim = below horizon</text>
</svg>
