<svg width="620" height="640" viewBox="0 0 620 640" xmlns="http://www.w3.org/2000/svg">
  <rect width="620" height="640" fill="#0B0D12"/>
  <circle cx="300" cy="300" r="260" fill="#12151C" stroke="#2A2E38" stroke-width="1"/>
  <circle cx="300" cy="300" r="171.6" fill="none" stroke="#1D212B" stroke-width="0.5"/>
  <circle cx="300" cy="300" r="85.8" fill="none" stroke="#1D212B" stroke-width="0.5"/>
  <text x="300" y="26" font-size="14" fill="#8A8F98" text-anchor="middle" font-family="sans-serif">N</text>
  <text x="576" y="304" font-size="14" fill="#8A8F98" text-anchor="middle" font-family="sans-serif">E</text>
  <text x="300" y="582" font-size="14" fill="#8A8F98" text-anchor="middle" font-family="sans-serif">S</text>
  <text x="24" y="304" font-size="14" fill="#8A8F98" text-anchor="middle" font-family="sans-serif">W</text>
  
  <circle cx="275.6" cy="558.9" r="12" fill="#F2B33D" opacity="0.2"/>
  
  <text x="275.6" y="538.2" font-size="12" fill="#F2B33D" opacity="0.2" text-anchor="middle" font-family="sans-serif">Sun</text>
  
  
  <g opacity="1">
    <circle cx="324.3" cy="255.9" r="16" fill="#2B2E33"/>
    <path d="M324.322468331205,239.85717241401042 A16,16 0 0,0 324.322468331205,271.8571724140104 A15.888043042970125,16 0 0,0 324.322468331205,239.85717241401042 Z" fill="#E8E6DE"/>
    <circle cx="324.3" cy="255.9" r="16" fill="none" stroke="#4A4D52" stroke-width="0.75"/>
  </g>
  
  <text x="324.3" y="231.9" font-size="12" fill="#C9CDD3" opacity="1" text-anchor="middle" font-family="sans-serif">Moon</text>
  
  <circle cx="512.4" cy="449.9" r="5" fill="#7F9FD0" opacity="0.25"/>
  
  <text x="512.4" y="439.9" font-size="11" fill="#9FB4DE" opacity="0.25" text-anchor="middle" font-family="sans-serif">Mercury</text>
  
  <circle cx="66.2" cy="413.8" r="5" fill="#7F9FD0" opacity="0.25"/>
  
  <text x="66.2" y="403.8" font-size="11" fill="#9FB4DE" opacity="0.25" text-anchor="middle" font-family="sans-serif">Venus</text>
  
  <circle cx="559.9" cy="306.5" r="5" fill="#7F9FD0" opacity="0.25"/>
  
  <text x="559.9" y="296.5" font-size="11" fill="#9FB4DE" opacity="0.25" text-anchor="middle" font-family="sans-serif">Mars</text>
  
  <circle cx="281.4" cy="559.3" r="5" fill="#7F9FD0" opacity="0.25"/>
  
  <text x="281.4" y="552.0" font-size="11" fill="#9FB4DE" opacity="0.25" text-anchor="middle" font-family="sans-serif">Jupiter</text>
  
  <circle cx="501.2" cy="240.7" r="5" fill="#7F9FD0" opacity="1"/>
  <line x1="501.2" y1="233.7" x2="501.2" y2="238.5" stroke="#9FB4DE" stroke-width="0.5" opacity="0.50"/>
  <text x="501.2" y="235.5" font-size="11" fill="#9FB4DE" opacity="1" text-anchor="middle" font-family="sans-serif">Saturn</text>
  
  <circle cx="558.8" cy="275.3" r="5" fill="#7F9FD0" opacity="0.25"/>
  
  <text x="558.8" y="265.3" font-size="11" fill="#9FB4DE" opacity="0.25" text-anchor="middle" font-family="sans-serif">Uranus</text>
  
  <circle cx="470.0" cy="236.7" r="5" fill="#7F9FD0" opacity="1"/>
  <line x1="470.0" y1="229.7" x2="470.0" y2="224.9" stroke="#9FB4DE" stroke-width="0.5" opacity="0.50"/>
  <text x="470.0" y="221.9" font-size="11" fill="#9FB4DE" opacity="1" text-anchor="middle" font-family="sans-serif">Neptune</text>
  <text x="300" y="600" font-size="13" fill="#6C7280" text-anchor="middle" font-family="sans-serif">Santiago, Chile — 2026-07-30 04:43 UTC</text>
  <text x="300" y="620" font-size="11" fill="#4A4E58" text-anchor="middle" font-family="sans-serif">zenith at center · horizon at edge · dim = below horizon</text>
</svg>
