<svg width="620" height="640" viewBox="0 0 620 640" xmlns="http://www.w3.org/2000/svg">
  <rect width="620" height="640" fill="#0B0D12"/>
  <circle cx="300" cy="300" r="260" fill="#12151C" stroke="#2A2E38" stroke-width="1"/>
  <circle cx="300" cy="300" r="171.6" fill="none" stroke="#1D212B" stroke-width="0.5"/>
  <circle cx="300" cy="300" r="85.8" fill="none" stroke="#1D212B" stroke-width="0.5"/>
  <text x="300" y="26" font-size="14" fill="#8A8F98" text-anchor="middle" font-family="sans-serif">N</text>
  <text x="576" y="304" font-size="14" fill="#8A8F98" text-anchor="middle" font-family="sans-serif">E</text>
  <text x="300" y="582" font-size="14" fill="#8A8F98" text-anchor="middle" font-family="sans-serif">S</text>
  <text x="24" y="304" font-size="14" fill="#8A8F98" text-anchor="middle" font-family="sans-serif">W</text>
  
  <circle cx="166.4" cy="384.1" r="12" fill="#F2B33D" opacity="1"/>
  
  <text x="166.4" y="365.4" font-size="12" fill="#F2B33D" opacity="1" text-anchor="middle" font-family="sans-serif">Sun</text>
  
  
  <g opacity="0.25">
    <circle cx="558.8" cy="325.1" r="16" fill="#2B2E33"/>
    <path d="M558.782855616272,309.1283433414883 A16,16 0 0,1 558.782855616272,341.1283433414883 A13.502673015342879,16 0 0,1 558.782855616272,309.1283433414883 Z" fill="#E8E6DE"/>
    <circle cx="558.8" cy="325.1" r="16" fill="none" stroke="#4A4D52" stroke-width="0.75"/>
  </g>
  
  <text x="558.8" y="301.1" font-size="12" fill="#C9CDD3" opacity="0.25" text-anchor="middle" font-family="sans-serif">Moon</text>
  
  <circle cx="125.2" cy="343.2" r="5" fill="#7F9FD0" opacity="1"/>
  
  <text x="125.2" y="333.2" font-size="11" fill="#9FB4DE" opacity="1" text-anchor="middle" font-family="sans-serif">Mercury</text>
  
  <circle cx="288.0" cy="470.7" r="5" fill="#7F9FD0" opacity="1"/>
  
  <text x="288.0" y="460.7" font-size="11" fill="#9FB4DE" opacity="1" text-anchor="middle" font-family="sans-serif">Venus</text>
  
  <circle cx="100.7" cy="248.8" r="5" fill="#7F9FD0" opacity="1"/>
  
  <text x="100.7" y="238.8" font-size="11" fill="#9FB4DE" opacity="1" text-anchor="middle" font-family="sans-serif">Mars</text>
  
  <circle cx="171.9" cy="388.4" r="5" fill="#7F9FD0" opacity="1"/>
  
  <text x="171.9" y="379.2" font-size="11" fill="#9FB4DE" opacity="1" text-anchor="middle" font-family="sans-serif">Jupiter</text>
  
  <circle cx="198.5" cy="60.6" r="5" fill="#7F9FD0" opacity="0.25"/>
  
  <text x="198.5" y="50.6" font-size="11" fill="#9FB4DE" opacity="0.25" text-anchor="middle" font-family="sans-serif">Saturn</text>
  
  <circle cx="95.3" cy="196.0" r="5" fill="#7F9FD0" opacity="1"/>
  
  <text x="95.3" y="186.0" font-size="11" fill="#9FB4DE" opacity="1" text-anchor="middle" font-family="sans-serif">Uranus</text>
  
  <circle cx="243.1" cy="46.3" r="5" fill="#7F9FD0" opacity="0.25"/>
  
  <text x="243.1" y="36.3" font-size="11" fill="#9FB4DE" opacity="0.25" text-anchor="middle" font-family="sans-serif">Neptune</text>
  <text x="300" y="600" font-size="13" fill="#6C7280" text-anchor="middle" font-family="sans-serif">Reykjavik, Iceland — 2026-07-26 16:42 UTC</text>
  <text x="300" y="620" font-size="11" fill="#4A4E58" text-anchor="middle" font-family="sans-serif">zenith at center · horizon at edge · dim = below horizon</text>
</svg>
