<svg width="680" height="640" viewBox="0 0 680 640" xmlns="http://www.w3.org/2000/svg" role="img">
<title>Solar system, viewed from above</title>
<desc>Sun-centered diagram with all eight planets at their current real ecliptic longitude, Saturn's rings, and major moons shown as small satellites.</desc>
<defs><marker id="arrow" viewBox="0 0 10 10" refX="8" refY="5" markerWidth="6" markerHeight="6" orient="auto-start-reverse"><path d="M2 1L8 5L2 9" fill="none" stroke="context-stroke" stroke-width="1.5" stroke-linecap="round" stroke-linejoin="round"/></marker></defs>
<style>
  .orbit { fill: none; stroke: #2A2E38; stroke-width: 0.5; stroke-dasharray: 2 3; }
  .moonorbit { fill: none; stroke: #2A2E38; stroke-width: 0.4; stroke-dasharray: 1 2; }
  .lbl { font-family: sans-serif; font-size: 12px; fill: #9FB4DE; }
  .moonlbl { font-family: sans-serif; font-size: 10px; fill: #6C7280; }
</style>
<rect width="680" height="640" fill="#0B0D12"/>
<circle class="orbit" cx="340" cy="330" r="50.0"/>
<circle class="orbit" cx="340" cy="330" r="86.2"/>
<circle class="orbit" cx="340" cy="330" r="101.9"/>
<circle class="orbit" cx="340" cy="330" r="119.6"/>
<circle class="orbit" cx="340" cy="330" r="179.0"/>
<circle class="orbit" cx="340" cy="330" r="206.2"/>
<circle class="orbit" cx="340" cy="330" r="239.9"/>
<circle class="orbit" cx="340" cy="330" r="260.0"/>
<circle cx="340" cy="330" r="16" fill="#F2B33D"/>
<text class="lbl" x="340" y="362" text-anchor="middle">Sun</text>
<circle cx="356.9" cy="282.9" r="3" fill="#9C9C9C"/>
<text class="lbl" x="356.9" y="271.9" text-anchor="middle">Mercury</text>
<circle cx="254.4" cy="340.5" r="5" fill="#E8C39E"/>
<text class="lbl" x="254.4" y="327.5" text-anchor="middle">Venus</text>
<circle cx="264.6" cy="261.5" r="5" fill="#4F83CC"/>
<circle class="moonorbit" cx="264.6" cy="261.5" r="11"/>
<circle cx="271.7" cy="253.1" r="1.4" fill="#C9CDD3"/>
<text class="moonlbl" x="264.6" y="284.5" text-anchor="middle">Moon</text>
<text class="lbl" x="264.6" y="248.5" text-anchor="middle">Earth</text>
<circle cx="438.8" cy="262.5" r="4" fill="#C1440E"/>
<circle class="moonorbit" cx="438.8" cy="262.5" r="10"/>
<circle cx="445.2" cy="254.9" r="1.4" fill="#C9CDD3"/>
<circle cx="432.4" cy="270.2" r="1.4" fill="#C9CDD3"/>
<text class="moonlbl" x="438.8" y="284.5" text-anchor="middle">Phobos, Deimos</text>
<text class="lbl" x="438.8" y="250.5" text-anchor="middle">Mars</text>
<circle cx="483.2" cy="437.5" r="11" fill="#D8AE82"/>
<circle class="moonorbit" cx="483.2" cy="437.5" r="17"/>
<circle cx="494.1" cy="424.5" r="1.4" fill="#C9CDD3"/>
<circle cx="496.2" cy="448.5" r="1.4" fill="#C9CDD3"/>
<circle cx="472.2" cy="450.5" r="1.4" fill="#C9CDD3"/>
<circle cx="470.1" cy="426.6" r="1.4" fill="#C9CDD3"/>
<text class="moonlbl" x="483.2" y="466.5" text-anchor="middle">Io, Europa, Ganymede, Callisto</text>
<text class="lbl" x="483.2" y="418.5" text-anchor="middle">Jupiter</text>
<ellipse cx="373.0" cy="126.5" rx="21.0" ry="6.0" fill="none" stroke="#C9A96E" stroke-width="1.5" opacity="0.8"/>
<circle cx="373.0" cy="126.5" r="10" fill="#E0C16C"/>
<circle class="moonorbit" cx="373.0" cy="126.5" r="16"/>
<circle cx="383.3" cy="114.2" r="1.4" fill="#C9CDD3"/>
<circle cx="385.3" cy="136.8" r="1.4" fill="#C9CDD3"/>
<circle cx="362.7" cy="138.7" r="1.4" fill="#C9CDD3"/>
<circle cx="360.8" cy="116.2" r="1.4" fill="#C9CDD3"/>
<text class="moonlbl" x="373.0" y="154.5" text-anchor="middle">Titan, Rhea, Iapetus, Dione</text>
<text class="lbl" x="373.0" y="108.5" text-anchor="middle">Saturn</text>
<circle cx="552.6" cy="218.7" r="7" fill="#9FD8D8"/>
<circle class="moonorbit" cx="552.6" cy="218.7" r="13"/>
<circle cx="560.9" cy="208.8" r="1.4" fill="#C9CDD3"/>
<circle cx="544.2" cy="228.7" r="1.4" fill="#C9CDD3"/>
<text class="moonlbl" x="552.6" y="243.7" text-anchor="middle">Titania, Oberon</text>
<text class="lbl" x="552.6" y="203.7" text-anchor="middle">Uranus</text>
<circle cx="352.1" cy="70.3" r="7" fill="#4166F5"/>
<circle class="moonorbit" cx="352.1" cy="70.3" r="13"/>
<circle cx="360.5" cy="60.3" r="1.4" fill="#C9CDD3"/>
<text class="moonlbl" x="352.1" y="95.3" text-anchor="middle">Triton</text>
<text class="lbl" x="352.1" y="55.3" text-anchor="middle">Neptune</text>

<text x="340" y="608" font-size="13" fill="#6C7280" text-anchor="middle" font-family="sans-serif">Solar system — 2026-08-04 15:13 UTC</text>
<text x="340" y="626" font-size="11" fill="#4A4E58" text-anchor="middle" font-family="sans-serif">real ecliptic longitude · distance log-scaled · moon positions illustrative</text>
</svg>
